<?xml version="1.0" standalone="no"?>
<!DOCTYPE svg PUBLIC "-//W3C//DTD SVG 1.1//EN" "http://www.w3.org/Graphics/SVG/1.1/DTD/svg11.dtd" >
<svg xmlns="http://www.w3.org/2000/svg">
<metadata>Generated by IcoMoon</metadata>
<defs>
<font id="icomoon" horiz-adv-x="512">
<font-face units-per-em="512" ascent="480" descent="-32" />
<missing-glyph horiz-adv-x="512" />
<glyph unicode="&#x20;" d="" horiz-adv-x="256" />
<glyph unicode="&#xe600;" d="M260.716 462.304c-131.492 0-238.080-106.588-238.080-238.080s106.594-238.085 238.080-238.085c131.486 0 238.080 106.594 238.080 238.085s-106.588 238.080-238.080 238.080zM327.117 329.496c14.315 0 25.918-13.107 25.918-29.282 0-16.179-11.607-29.291-25.918-29.291s-25.907 13.113-25.907 29.291c0 16.174 11.597 29.281 25.907 29.281zM187.833 329.496c14.31 0 25.912-13.107 25.912-29.282 0-16.179-11.602-29.291-25.912-29.291s-25.912 13.113-25.912 29.291c0 16.174 11.602 29.281 25.912 29.281zM257.884 62.549c-75.305 0-138.506 47.273-154.839 110.51-0.62 2.391 14.94 7.25 14.94 7.25 13.41-56.202 71.040-98.576 139.899-98.576 68.864 0 126.495 42.373 139.904 98.576 0 0 15.611-4.639 15.027-6.928-16.205-63.401-79.498-110.832-154.931-110.832z" />
<glyph unicode="&#xe601;" d="M257.924 482.565c-142.208 0-257.924-114.745-257.924-255.804 0-141.076 115.716-255.841 257.924-255.841s257.924 114.766 257.924 255.841c0.002 141.059-115.714 255.804-257.924 255.804zM337.225 445.766c37.221-13.868 69.871-36.981 95.050-66.803 17.688-30.952 21.23-46.666 20.154-54.486l-71.297-26.056-76.32 48.438c-5.281 27.701-17.76 72.538-21.725 86.645 19.313 11.971 50.668 12.263 54.139 12.263zM266.349 433.416l-0.127-0.036c0.163-0.549 15.657-54.486 22.089-86.681l-68.921-56.571-110.435 16.446c0 0-6.834 29.382-6.724 53.024l0.017-0.037c0.421 0.586 38.9 62.27 103.198 82.278 0.002 0 38.263-1.771 60.901-8.423zM156.353 436.12c-34.132-23.078-58.14-54.323-65.303-64.317-9.227-3.892-18.856-11.876-26.897-19.679 22.328 35.868 54.231 65.031 92.201 83.997zM29.62 231.987c0 3.911 0.401 7.747 0.602 11.658 6.231-10.891 15.311-19.058 21.927-24.065 5.556-21.105 21.358-74.968 47.322-117.688-0.766-17.010 0.823-28.613 2.76-36.398-44.565 41.698-72.612 100.805-72.612 166.493zM113.834 109.455c-26.749 43.651-42.829 101.813-46.995 118.201 16.699 35.577 38.334 62.472 38.334 62.472l108.115-15.751c12.278-35.411 29.455-72.247 37.731-89.459-12.023-17.96-45.806-67.933-65.76-92.49-19.149-0.274-52.678 10.414-71.425 17.027zM257.906 3.701c-19.825 0-38.975 2.777-57.336 7.563 19.075 0.586 30.332 5.116 36.743 9.464 5.774-1.24 22.456-4.421 44.73-4.421 22.712 0 51.142 3.454 79.28 15.531 1.498-0.51 2.98-0.785 4.477-0.967-32.139-17.321-68.902-27.169-107.894-27.169zM359.808 48.813c-57.447-27.062-120.137-12.005-120.793-11.841l-4.678 2.395c-17.029 15.623-31.464 39.556-34.241 44.4-0.146 0.255-0.202 0.512-0.328 0.767 20.5 25.762 52.256 72.684 64.335 90.774 64.772 2.813 90.299 7.93 90.299 7.93 0.238-0.365 33.163-43.287 48.767-81.711-7.858-18.747-30.697-40.457-43.36-52.715zM464.706 142.711c-26.166-20.649-49.298-28.76-49.298-28.76-10.359 20.392-46.591 78.898-46.591 78.898 11.986 29.783 16.829 70.858 19.296 90.846l68.207 24.942c16.902-16.39 25.837-44.638 28.796-55.747 0.641-6.906 1.080-13.886 1.080-20.904 0-33.728-7.529-65.596-20.721-94.428-0.038 3.437-0.769 5.154-0.769 5.154z" horiz-adv-x="516" />
<glyph unicode="&#xe602;" d="M355.113 364.363c0-55.358-44.391-100.234-99.149-100.234s-99.149 44.877-99.149 100.234c0 55.358 44.391 100.234 99.149 100.234s99.149-44.877 99.149-100.234zM205.998 186.904l49.054 49.597 52.787-48.819-48.502-150.912-53.34 150.134zM198.292 210.492l5.847-14.925 46.172 46.054zM313.641 210.492l-4.88-14.361-48.399 46.054zM235.663-11.107l-86.036 258.565c0 0-87.557 14.894-97.725-35.41v-187.577zM460.089 24.477v187.577c-10.158 50.304-97.721 35.41-97.721 35.41l-86.026-258.57zM420.91 83.373h-57.815l-5.12 54.082h68.055l-5.12-54.082zM368.215 128.557h48.543v-5.335h-48.543v5.335z" />
<glyph unicode="&#xe603;" d="M450.852 316.461l-128.174 128.144c-3.298 3.292-7.399 5.458-11.822 6.559-0.399 0.102-0.758 0.266-1.178 0.348-1.469 0.297-2.99 0.42-4.526 0.456-0.185 0.005-0.363 0.056-0.553 0.056h-0.021c-0.010 0-0.010 0-0.021 0l-231.639-0.082c-14.131-0.010-26.839-11.387-26.839-25.518v-399.36c0-14.142 13.983-25.6 28.124-25.6h358.4c14.147 0 25.59 11.443 25.6 25.575l0.149 271.329c0.005 6.794-2.693 13.291-7.501 18.094zM327.68 364.752l43.248-40.73h-43.248v40.73zM97.28 52.663v348.18l179.2 0.123v-102.544c0-14.142 13.978-25.6 28.119-25.6h102.543l-0.113-220.16h-309.75zM145.884 272.823h87.040c14.142 0 25.6 11.458 25.6 25.6s-11.459 25.6-25.6 25.6h-87.040c-14.142 0-25.6-11.458-25.6-25.6s11.458-25.6 25.6-25.6zM360.919 236.983h-215.040c-14.142 0-25.6-11.459-25.6-25.6s11.459-25.6 25.6-25.6h215.040c14.142 0 25.6 11.459 25.6 25.6s-11.459 25.6-25.6 25.6zM304.599 149.943h-158.72c-14.142 0-25.6-11.459-25.6-25.6s11.459-25.6 25.6-25.6h158.72c14.142 0 25.6 11.459 25.6 25.6s-11.459 25.6-25.6 25.6z" />
<glyph unicode="&#xe604;" d="M99.522 219.831h291.646v-59.202h-291.646v59.202zM392.423 414.503c-0.010 0-0.031-0.005-0.051-0.005 0.041 0.896 0.128 1.782 0.128 2.678 0 36.219-29.337 65.567-65.552 65.567-23.409 0-43.909-12.313-55.501-30.786-10.491 12.083-25.923 19.753-43.182 19.753-27.038 0-49.638-18.775-55.618-43.981-8.761 8.366-20.603 13.527-33.674 13.527-26.977 0-48.834-21.863-48.834-48.83 0-4.521 0.665-8.878 1.813-13.040-14.070-3.415-24.55-16.005-24.55-31.125 0-17.736 14.382-32.108 32.108-32.108h0.005v-86.287h291.656v80.348c0.409-0.010 0.829-0.072 1.25-0.072 28.82 0 52.173 23.363 52.173 52.178s-23.353 52.183-52.168 52.183zM388.265 46.217c-1.147 0.42-1.080-1.387-2.77-6.293-6.533-20.613-23.25-27.003-32.2-27.003s-20.234 4.086-30.986 22.876c-10.731 18.791-25.052 38.026-48.313 38.026-20.956 0-28.099-11.935-29.322-14.32-1.219 2.386-8.361 14.32-29.312 14.32-23.266 0-37.581-19.236-48.322-38.026-10.747-18.791-22.041-22.876-30.981-22.876-8.95 0-25.672 6.39-32.2 27.003-1.689 4.921-1.613 6.723-2.76 6.293-0.599-0.22-0.64-1.787-0.328-5.084s10.363-70.39 76.38-70.39c36.741 0 66.401 17.469 66.401 51.522 0 0-0.041 1.234 1.137 1.387 1.173-0.144 1.142-1.387 1.142-1.387 0-34.048 29.666-51.522 66.396-51.522 66.028 0 76.058 67.092 76.38 70.39 0.276 3.303 0.24 4.864-0.343 5.084z" />
<glyph unicode="&#xe605;" d="M476.979 482.379c-171.52 5.704-312.013-57.564-312.013-57.564l-0.102-321.070c-17.465 6.933-38.702 8.581-60.267 3.333-46.505-11.3-76.959-50.274-68.019-87.076s53.883-57.472 100.382-46.183c43.847 10.66 73.411 45.926 69.156 80.752v0 239.902c0 0 99.349 34.729 228.214 43.438v-178.427c-17.275 6.615-38.103 8.115-59.284 2.969-46.505-11.295-76.959-50.274-68.019-87.081 8.935-36.798 53.878-57.467 100.377-46.172 40.612 9.866 68.976 40.842 69.57 73.031l0.010-0.021c-0.005 0.021-0.005 314.998-0.005 380.165z" />
<glyph unicode="&#xe606;" d="M62.071 112.18c-0.227 12.702 0.654 22.815 0.925 30.154 0.441 11.791 10.824 59.938 49.227 93.903v0.014c-39.441 54.803-53.722 100.445-57.69 115.622 0.768 2.091 1.55 4.281 2.361 6.543 0.014 0.071 0.042 0.156 0.057 0.242 6.173 17.211 13.726 38.246 22.572 49.981 5.576 7.368 11.635 10.739 18.049 5.889 1.408-1.053 3.4-0.783 4.466 0.626 1.052 1.408 0.782 3.399-0.626 4.452-10.184 7.695-19.13 3.257-26.968-7.14-10.198-13.512-17.864-35.857-23.568-51.916-10.326-28.845-41.788-54.603-49.17-9.772-8.505 51.617 14.793 104.016 72.767 98.397 40.536-3.911 96.762-130.315 106.448-180.609 9.643 1.692 20.055 2.617 31.263 2.617 11.649 0 22.445-0.995 32.429-2.816 0.868 4.139 2.304 8.591 4.466 13.399 24.593 54.945 46.596 105.651 10.895 162.944-3.228 5.191-6.727 9.985-9.928 13.341-3.869 4.068-7.709 6.272-10.981 5.291-0.726-0.214-1.408-0.569-2.019-1.081-7.453-6.144-6.315-17.58-5.888-21.89 0.042-0.426 0.1-0.782 0.1-0.953 0.085-1.749 1.55-3.115 3.3-3.029s3.129 1.579 3.044 3.329c-0.014 0.356-0.071 0.768-0.1 1.294-0.327 3.357-1.223 12.232 3.47 16.257 0.697 0.029 2.333-1.365 4.466-3.599 2.887-3.029 6.116-7.467 9.145-12.331 7.837-12.602 11.521-20.311 12.673-34.805-3.641-12.858-12.388-30.865-29.386-2.646-17.58 29.144-9.004 61.076-9.004 61.076 6.884 11.166 38.332 37.394 87.644-7.738 74.971-68.642 65.983-176.868-3.627-221.629 37.82-33.937 48.075-81.557 48.488-93.277 0.284-7.339 1.166-17.481 0.938-30.168 5.533-7.439 9.757-15.887 12.275-25.275 0 0-4.025-0.555-7.724 0.967 0 0 4.865-6.628 4.253-28.945 0 0-5.405 4.608-5.86 3.527-0.469-1.081 0.611-19.088-11.563-37.721 0 0-2.389 5.078-2.56 6.614 0 0-2.532-11.223-19.614-28.163 0 0-2.162 4.608-1.863 7.226 0 0-10.611-12.147-32.642-19.557-22.018-7.396-22.175-6.913-36.781-8.306-16.528-1.579-35.786-11.777-48.701-11.777s-29.115 10.027-47.421 11.777c-14.621 1.394-14.778 0.911-36.81 8.307-22.018 7.396-32.642 19.557-32.642 19.557 0.313-2.617-1.849-7.226-1.849-7.226-17.096 16.911-19.629 28.163-19.629 28.163-0.156-1.522-2.546-6.614-2.546-6.614-12.161 18.632-11.094 36.639-11.563 37.721-0.455 1.081-5.846-3.527-5.846-3.527-0.611 22.317 4.239 28.945 4.239 28.945-3.656-1.536-7.681-0.981-7.681-0.981 2.532 9.401 6.756 17.865 12.289 25.317v0zM175.573 43.111c2.063-8.477 8.392-30.751 18.263-32.301 6.415-1.024 10.142-1.28 12.531-0.668 1.948 0.512 3.030 1.75 4.253 3.812v50.749c-1.138-2.859-2.56-5.334-4.253-7.197-6.415-6.941-16.869-12.389-29.898-14.266-0.298-0.043-0.597-0.071-0.896-0.128v0zM193.339 7.638c-11.863 1.892-18.846 26.526-20.937 35.146-10.113-0.868-21.634 0.384-33.937 4.594-1.664 0.569-2.56 2.375-1.992 4.011 0.554 1.664 2.375 2.575 4.025 2.005 12.971-4.423 24.934-5.305 35.075-3.854 11.521 1.664 20.624 6.329 26.085 12.275 4.808 5.206 6.585 16.94 7.168 27.892-0.185 3.2-0.27 6.315-0.285 9.174-9.274 8.335-26.726 23.199-32.088 34.449l-0.298-0.029c-41.077 18.562-103.404-6.23-113.062-38.731 0 0 3.228 0.469 6.443 1.835 0 0-10.696-11.393-9.857-26 0 0 6.159 1.308 6.557 0.356 0.398-0.967-3.228-17.751 5.362-32.615 0 0 4.495 6.087 4.623 7.411 0 0 0.626-13.811 15.461-28.731 0 0 3.684 5.305 3.413 7.61 25.389-24.663 33.752-27.536 63.109-30.978 13.911-1.635 39.143-12.502 53.31-12.502s41.276 10.952 54.575 12.502c29.343 3.442 37.707 6.301 63.109 30.978-0.27-2.304 3.413-7.61 3.413-7.61 14.835 14.921 15.475 28.731 15.475 28.731 0.114-1.365 4.608-7.411 4.608-7.411 8.591 14.892 4.978 31.675 5.39 32.615 0.399 0.938 6.557-0.356 6.557-0.356 0.839 14.608-9.857 26-9.857 26 3.228-1.365 6.443-1.835 6.443-1.835-9.644 32.5-71.971 57.277-113.062 38.731l-0.285 0.029c-5.476-11.45-23.44-26.626-32.586-34.861 0-2.716-0.085-5.69-0.285-8.748 0.554-10.952 2.361-22.687 7.168-27.892 5.476-5.945 14.579-10.611 26.1-12.275 10.142-1.465 22.103-0.555 35.075 3.854 1.65 0.569 3.457-0.327 4.025-2.005s-0.327-3.471-2.005-4.011c-12.118-4.125-23.44-5.405-33.468-4.637-2.091-8.648-9.103-33.212-20.937-35.103-6.856-1.081-10.952-1.308-13.811-0.583-2.304 0.626-3.755 1.75-5.049 3.499-1.28-1.75-2.716-2.873-5.035-3.499-2.802-0.74-6.884-0.512-13.74 0.569v0zM230.547 10.81c9.843 1.55 16.186 23.724 18.234 32.259-0.441 0.057-0.896 0.114-1.337 0.199-13.029 1.877-23.483 7.311-29.898 14.266-1.479 1.593-2.716 3.684-3.784 6.045v-49.611c1.223-2.063 2.304-3.286 4.267-3.812 2.389-0.626 6.116-0.37 12.517 0.654v0zM139.090 171.492c2.958 12.474 15.333 19.998 27.622 16.841 12.289-3.172 19.841-15.817 16.883-28.276-1.863-7.837-7.411-13.697-14.323-16.229 2.034-0.583 4.053-1.252 6.059-1.949 4.494 11.834 22.701 5.832 36.867 5.832 14.195 0 32.387 6.002 36.895-5.832 2.077 0.754 4.225 1.423 6.344 2.034-10.938 4.053-17.41 15.887-14.593 27.579 2.944 12.445 15.333 19.984 27.608 16.812 12.275-3.144 19.841-15.802 16.897-28.262-1.195-4.993-3.869-9.16-7.439-12.175 8.961 0.611 17.865 0.086 26.442-1.465 18.135 56.595-64.275 109.094-92.125 26.654-29.84 74.943-112.749 20.582-92.125-26.654 8.719 1.565 17.779 2.077 26.897 1.437-6.699 5.533-10.056 14.65-7.908 23.654v0zM171.335 181.548c4.452 0 8.079-3.556 8.079-7.979s-3.627-7.979-8.079-7.979c-4.481 0-8.093 3.584-8.093 7.979 0 4.423 3.613 7.979 8.093 7.979zM273.061 181.548c4.466 0 8.079-3.556 8.079-7.979s-3.613-7.979-8.079-7.979-8.093 3.584-8.093 7.979c0 4.423 3.627 7.979 8.093 7.979zM212.199 138.152c-14.977 0.697-26.697 8.889-29.898 4.224-3.058-4.495 0.612-12.005 2.702-15.418 4.423 13.541 12.132-20.112 27.181-20.112 16.3 0 23.013 34.307 27.935 19.301 2.972 4.238 6.002 12.303 4.040 15.333-3.542 5.519-16.457-2.603-31.96-3.329z" horiz-adv-x="375" />
<glyph unicode="&#xe607;" d="M448 354.743v-256h-384v256h384zM512 418.743h-512v-384h512v384zM96 130.743h320l-64 192-96-128-64 64-96-128zM128 322.743c-17.689 0-32-14.326-32-32s14.311-32 32-32 32 14.326 32 32-14.31 32-32 32z" />
<glyph unicode="&#xe608;" d="M572.236 211.684v-87.83l-189.334-113.122-194.666 113.122v87.831l195.825-96.926zM383.827 138.551l366.118 182.55-366.132 154.526-376.35-154.526 82.138-39.846c-1.868-47.308-7.002-139.565-12.966-169.397-4.932-24.674-28.8-59.836-73.502-104.508-1.716-1.724-3.893-4.269-2.914-6.626 1.024-2.469 4.653-2.469 5.851-2.469 11.55 0 43.031 10.661 59.392 21.557 2.394 1.604 4.578 2.402 6.49 2.402 7.175 0 11.347-11.813 15.383-23.243 3.832-10.85 7.447-21.105 14.073-24.418 1.002-0.49 2.033-0.753 3.072-0.753 2.311 0 4.495 1.228 6.633 3.652 12.198 13.809 21.421 68.887 15.127 119.206-5.737 45.907-2.853 124.13 1.573 166.046l256.015-124.152zM378.91 398.677c16.889 0 30.637-13.749 30.637-30.644 0-16.889-13.748-30.63-30.637-30.63s-30.622 13.741-30.622 30.63c-0.007 16.896 13.733 30.644 30.622 30.644z" horiz-adv-x="753" />
<glyph unicode="&#xe609;" d="M512 249.783c0 15.488-12.672 28.16-28.16 28.16h-33.669l-24.423 63.488c-6.072 15.769-24.32 32.471-40.571 37.115 0-0.005-42.137 12.037-129.178 12.037s-129.183-12.042-129.183-12.042c-16.246-4.644-34.499-21.34-40.566-37.115l-24.418-63.483h-33.674c-15.488 0-28.16-12.672-28.16-28.16s12.672-28.16 28.16-28.16h12.011l-8.663-22.528c-6.067-15.764-11.028-42.496-11.028-59.392v-133.12c0-19.712 16.128-35.84 35.84-35.84s35.84 16.128 35.84 35.84v20.48h327.68v-20.48c0-19.712 16.128-35.84 35.84-35.84s35.84 16.128 35.84 35.84v133.12c0 16.896-4.971 43.627-11.029 59.392l-8.673 22.528h12.022c15.488 0 28.16 12.672 28.16 28.16zM90.578 241.468l28.759 78.064c1.951 5.284 8.151 9.61 13.783 9.61h245.76c5.632 0 11.842-4.327 13.778-9.605l28.759-78.064c1.945-5.284-1.065-9.61-6.697-9.61h-317.44c-5.632 0-8.648 4.327-6.702 9.605zM89.6 114.103c-15.555 0-28.16 12.621-28.16 28.16s12.606 28.16 28.16 28.16c15.549 0 28.16-12.621 28.16-28.16s-12.611-28.16-28.16-28.16zM422.4 114.103c-15.555 0-28.16 12.606-28.16 28.16s12.606 28.16 28.16 28.16 28.16-12.606 28.16-28.16-12.606-28.16-28.16-28.16z" />
<glyph unicode="&#xe60a;" d="M157.484 277.685h207.588v-23.063h-207.588v23.063zM157.484 352.325h115.329v-23.063h-115.329v23.063zM157.484 203.065h207.588v-23.070h-207.588v23.070zM157.484 128.426h207.588v-23.063h-207.588v23.063zM329.735 430.453h-230.406v-409.97h323.882v320.942l-93.475 89.029zM337.12 389.446l43.048-41h-43.048v41zM123.924 45.085v360.759h188.595v-81.993h86.089v-278.766h-274.683z" horiz-adv-x="532" />
<glyph unicode="&#xe60b;" d="M207.508 127.22l-139.597-120.996c-12.764-11.070-32.272-9.677-43.341 3.092l-5.017 5.796c-11.069 12.769-9.682 32.272 3.093 43.341l140.651 121.913zM321.731 87.433c-101.089 0-183.030 81.945-183.030 183.045 0 101.089 81.941 183.035 183.030 183.035 101.1 0 183.045-81.945 183.045-183.035 0-101.095-81.945-183.040-183.045-183.045zM453.171 270.483c0 73.871-59.878 133.755-133.765 133.755-73.871 0-133.755-59.884-133.755-133.755 0-73.882 59.883-133.765 133.755-133.765 73.877 0 133.76 59.884 133.765 133.765z" />
<glyph unicode="&#xe60c;" d="M393.378 408.309c0.185 6.15 0.288 12.346 0.288 18.594h-273.009c0-6.249 0.104-12.444 0.289-18.594h-89.945c0-94.956 58.824-176.168 142.017-209.197 18.14-30.133 39.97-50.74 63.813-58.286v-71.259h-20.911c-19.248 0-34.853-15.604-34.853-34.853v-8.132h149.865v8.132c0 19.249-15.604 34.853-34.853 34.853h-18.588v71.259c24.171 7.649 46.268 28.729 64.554 59.538 81.569 33.791 138.955 114.161 138.955 207.945h-87.622zM60.78 384.044h61.371c3.893-55.534 15.227-105.923 31.794-146.451-55.889 30.218-93.165 84.503-93.165 146.451zM316.842 311.418c-8.893-7.313-17.705-14.717-26.579-22.053-0.243-0.214-0.495-0.434-0.665-0.714 2.507-10.91 5.316-21.761 7.935-32.649 1.99-5.458-2.664-11.898-8.509-11.47-2.020 0.024-3.778 1.132-5.389 2.23-8.698 5.495-17.401 10.987-26.104 16.476-0.741 0.453-1.439 1.021-2.274 1.294-9.866-5.943-19.583-12.152-29.424-18.144-2.706-1.615-6.3-1.593-8.956 0.113-2.8 1.667-4.525 5.107-3.863 8.352 2.835 11.641 6.025 23.221 8.731 34.883-7.992 6.879-16.11 13.621-24.141 20.457-1.819 1.473-3.791 3.016-4.58 5.313-1.929 4.612 1.124 10.626 6.178 11.346 12.031 1.017 24.144 1.445 36.147 2.547 4.151 9.92 8.143 19.916 12.245 29.861 0.764 1.983 1.646 4.049 3.388 5.379 3.857 3.3 10.621 2.195 12.811-2.516 4.435-10.984 8.789-22.003 13.195-33.001 0.074-0.373 0.426-0.497 0.77-0.497 11.027-0.755 22.046-1.654 33.071-2.439 3.165-0.066 6.303-1.808 7.732-4.682 1.77-3.227 1.179-7.705-1.719-10.086zM361.031 239.228c16.209 40.247 27.301 90.021 31.141 144.816h59.049c0-60.844-35.955-114.299-90.19-144.816z" />
<glyph unicode="&#xe60d;" d="M59.065 63.804h38.4v-1.039h-38.4v1.039zM470.052 422.189h-71.613c-9.134 0-16.563-7.388-16.604-16.522v-51.353h-251.156v51.272c0 9.175-7.429 16.604-16.604 16.604h-71.614c-9.175 0-16.604-7.429-16.604-16.604v-359.424c0-9.175 7.429-16.604 16.604-16.604h71.614c4.398 0 8.633 1.746 11.751 4.859 4.859 4.859 4.859 4.859 4.859 44.836v16.481h251.156v-49.567c0-9.175 7.429-16.604 16.604-16.604h71.608c9.175 0 16.604 7.429 16.604 16.604v359.424c0 9.17-7.429 16.599-16.604 16.599zM97.465 62.765h-38.4v37.863h38.4v-37.863zM97.465 137.45h-38.4v36.823h38.4v-36.823zM97.465 211.096h-38.4v36.823h38.4v-36.823zM97.465 284.737h-38.4v36.823h38.4v-36.823zM97.465 358.383h-38.4v30.597h38.4v-30.597zM381.834 128.941h-251.156v192.164h251.156v-192.164zM453.442 62.765h-38.4v37.863h38.4v-37.863zM453.442 137.45h-38.4v36.823h38.4v-36.823zM453.442 211.096h-38.4v36.823h38.4v-36.823zM453.442 284.737h-38.4v36.823h38.4v-36.823zM453.442 358.383h-38.4v30.597h38.4v-30.597zM415.048 63.804h38.4v-1.039h-38.4v1.039zM304.082 225.872c0-3.031-1.577-5.893-4.152-7.516l-77.798-49.362c-1.454-0.952-3.113-1.413-4.772-1.413-1.495 0-2.949 0.374-4.316 1.122-2.821 1.577-4.608 4.567-4.608 7.803v98.729c0 3.282 1.787 6.267 4.608 7.844 2.862 1.536 6.354 1.454 9.093-0.292l77.798-49.403c2.565-1.618 4.147-4.439 4.147-7.511z" />
<glyph unicode="&#xe60e;" d="M365.159 250.837c-6.128 0-9.866 0-9.866 0v80.138c-0.491 98.274-67.543 151.767-148.987 151.767-81.454 0-154.481-56.038-151.941-151.767l-0.092-80.051c0 0 1.234-0.092-4.92-0.092-6.482 0-49.352-7.552-49.352-45.763v-183.399c0-40.75 48.236-50.928 49.352-50.928 85.816 0 227.527 0 313.365 0 1.132 0 46.884 5.074 46.884 50.928v180.864c0 43.3-43.305 48.302-44.442 48.302zM241.398 41.307h-73.052l15.155 74.578c-10.855 7.224-18.064 19.799-18.064 34.13 0 22.425 17.628 40.637 39.363 40.637 21.73 0 39.358-18.212 39.358-40.637 0-14.32-7.204-26.885-18.053-34.12l15.293-74.588zM123.269 250.837l0.097 79.068c0 50.939 31.078 91.684 81.439 91.684 49.869 0 81.428-35.651 81.428-91.684l0.041-79.068h-163.006z" horiz-adv-x="410" />
<glyph unicode="&#xe60f;" d="M402.867 194.645l-0.067 16.266c22.999-3.005 69.883 13.742 69.883 13.742-15.892 16.251-19.486 35.221-29.921 109.655-10.43 74.439-75.12 73.743-79.99 73.743s-69.565 0.697-80-73.738c-10.435-74.435-14.029-93.404-29.916-109.655 0 0 46.884-16.748 69.883-13.742l-0.067-16.266c-11.801-12.938-25.841-22.82-39.849-31.242 4.587-2.601 9.139-5.115 13.563-7.542 31.262-17.152 60.795-33.346 60.795-65.792v-35.461h145.408c4.992 0 9.037 4.050 9.037 9.042v40.653c0.005 37.284-67.84 45.466-108.759 90.338zM511.196 104.016v-40.653zM221.113 190.539v0 13.061c11.863 13.829 20.808 29.788 26.895 48.384 0.865 2.657 1.679 5.366 2.427 8.125 6.216 3.19 11.274 11.684 12.411 22.103 0.384 3.466 0.302 6.815-0.179 9.912-0.809 5.156-2.719 9.595-5.392 12.657 0.533 9.866 0.553 20.29 0.092 31.278-0.358 8.546-1.009 17.428-1.987 26.706-0.24 2.294-0.548 4.495-0.917 6.63-9.252 53.33-57.779 58.599-76.216 58.644-0.738 0.005-13.496 0.005-14.233 0-18.437-0.041-66.965-5.315-76.216-58.644-0.368-2.135-0.676-4.342-0.916-6.63-0.973-9.277-1.618-18.156-1.987-26.706-0.466-10.988-0.445-21.417 0.092-31.278-2.678-3.062-4.588-7.501-5.386-12.657-0.487-3.097-0.569-6.446-0.189-9.912 1.147-10.419 6.195-18.918 12.416-22.103 1.505-5.53 3.241-10.834 5.218-15.934 5.913-15.304 13.942-28.718 24.11-40.576v-13.061c-45.507-49.904-120.725-58.998-120.725-100.459v-45.2c0-5.55 4.495-10.055 10.050-10.055h321.296c5.55 0 10.046 4.505 10.046 10.055v45.2c0.005 41.462-75.213 50.555-120.709 100.459z" />
<glyph unicode="&#xe610;" d="M394.24 344.503c0-76.348-61.892-138.24-138.24-138.24s-138.24 61.892-138.24 138.24c0 76.348 61.892 138.24 138.24 138.24s138.24-61.892 138.24-138.24zM501.76-29.257v35.84c0 84.48-69.12 153.6-153.6 153.6h-184.32c-84.48 0-153.6-69.12-153.6-153.6v-35.84h491.52z" />
<glyph unicode="&#xe611;" d="M442.695 368.265h-30.126v-47.626c0-20.454-16.732-37.202-37.192-37.202-20.475 0-37.207 16.748-37.207 37.202v47.626h-164.342v-47.626c0-20.454-16.732-37.202-37.207-37.202-20.459 0-37.202 16.748-37.202 37.202v47.626h-30.111c-11.909 0-21.657-9.733-21.657-21.648v-282.608c0-11.909 9.748-21.652 21.657-21.652h373.386c11.909 0 21.652 9.743 21.652 21.652v282.608c0 11.914-9.743 21.648-21.652 21.648zM422.262 86.137c0-11.909-9.728-21.647-21.647-21.647h-289.229c-11.899 0-21.648 9.733-21.648 21.647v158.771c0 11.899 9.743 21.648 21.648 21.648h289.229c11.914 0 21.647-9.744 21.647-21.648v-158.771zM136.622 307.045c10.127 0 18.391 8.263 18.391 18.386v67.328c0 10.122-8.263 18.375-18.391 18.375-10.107 0-18.376-8.253-18.376-18.375v-67.328c0-10.122 8.269-18.386 18.376-18.386zM375.378 307.045c10.107 0 18.375 8.263 18.375 18.386v67.328c0 10.122-8.269 18.375-18.375 18.375-10.122 0-18.391-8.253-18.391-18.375v-67.328c0.005-10.122 8.274-18.386 18.391-18.386zM186.035 226.149h-39.778c-6.6 0-11.94-5.33-11.94-11.925v-30.096c0-6.594 5.34-11.94 11.94-11.94h39.778c6.579 0 11.94 5.346 11.94 11.94v30.096c0 6.594-5.361 11.925-11.94 11.925zM275.897 226.149h-39.787c-6.6 0-11.945-5.33-11.945-11.925v-30.096c0-6.594 5.34-11.94 11.945-11.94h39.787c6.579 0 11.94 5.346 11.94 11.94v30.096c0 6.594-5.361 11.925-11.94 11.925zM365.742 226.149h-39.777c-6.594 0-11.935-5.33-11.935-11.925v-30.096c0-6.594 5.34-11.94 11.935-11.94h39.778c6.594 0 11.94 5.346 11.94 11.94v30.096c0 6.594-5.346 11.925-11.94 11.925zM186.035 154.551h-39.778c-6.6 0-11.94-5.34-11.94-11.935v-30.101c0-6.594 5.34-11.925 11.94-11.925h39.778c6.579 0 11.94 5.33 11.94 11.925v30.101c0 6.594-5.361 11.935-11.94 11.935zM275.897 154.551h-39.787c-6.6 0-11.945-5.34-11.945-11.935v-30.101c0-6.594 5.34-11.925 11.945-11.925h39.787c6.579 0 11.94 5.33 11.94 11.925v30.101c0 6.594-5.361 11.935-11.94 11.935zM365.742 154.551h-39.777c-6.594 0-11.935-5.34-11.935-11.935v-30.101c0-6.594 5.34-11.925 11.935-11.925h39.778c6.594 0 11.94 5.33 11.94 11.925v30.101c0 6.594-5.346 11.935-11.94 11.935z" />
<glyph unicode="&#xe612;" d="M266.998 359.105c-3.589 0.384-7.214 0.619-10.88 0.619-0.051 0-0.072 0-0.072 0s0 0-0.036 0c-3.722 0-7.378-0.236-11.003-0.619-138.117-6.584-203.894-132.388-203.894-132.388s69.115-132.956 214.938-132.956c145.762 0 214.835 132.951 214.835 132.951s-65.762 125.808-203.889 132.393zM220.903 293.897c15.8 0 28.606-12.8 28.606-28.57 0-15.805-12.805-28.642-28.606-28.642-15.78 0-28.57 12.836-28.57 28.642-0.005 15.769 12.785 28.57 28.57 28.57zM256.051 131.562c-92.636 0-148.951 63.063-171.612 95.15 13.614 19.323 39.567 49.869 78.285 71.137-5.13-12.094-7.941-25.416-7.941-39.358 0-55.926 45.307-101.258 101.227-101.258 55.936 0 101.253 45.332 101.253 101.258 0 13.865-2.821 27.1-7.87 39.142 38.548-21.284 64.543-51.738 78.192-70.953-22.651-32.051-78.976-95.12-171.536-95.12z" />
<glyph unicode="&#xe613;" d="M405.729-29.257h-299.454c-10.675 0-19.323 8.647-19.323 19.328v195.134c0 10.67 8.648 19.318 19.323 19.318h19.318v82.683c0 72.018 58.384 130.406 130.411 130.406 72.013 0 130.406-58.383 130.406-130.406v-82.683h19.318c10.67 0 19.318-8.647 19.318-19.318v-195.129c0.005-10.685-8.647-19.333-19.318-19.333zM325.028 283.344c0 38.118-30.909 69.017-69.022 69.017-38.124 0-69.022-30.899-69.022-69.017v-78.822h138.050v78.822z" />
<glyph unicode="&#xe614;" d="M413.255 226.743h-19.015v120.499c0 74.844-68.516 135.501-143.36 135.501-72.986 0-139.924-57.692-143.202-129.966-0.092-0.507-0.159-14.986-0.159-14.986 0-4.777 3.87-8.648 8.648-8.648h49.26c4.777 0 8.653 3.87 8.653 8.648v9.452c0 44.278 35.082 80.19 79.36 80.19s79.36-35.906 79.36-80.19v-120.499h-239.175c-9.293 0-16.825-7.537-16.825-16.824v-170.736c0-37.627 45.84-68.439 83.497-68.439h203.249c37.653 0 66.534 30.812 66.534 68.439v170.736c0 9.288-7.536 16.825-16.825 16.825z" />
<glyph unicode="&#xe615;" d="M424.505 220.117l-77.645-44.825v17.894c0 18.704-15.175 33.874-33.874 33.874h-169.38c-18.709 0-33.874-15.17-33.874-33.874v-135.506c0-18.719 15.165-33.874 33.874-33.874h169.38c18.698 0 33.874 15.155 33.874 33.874v17.976l77.645-44.825v189.286zM262.344 318.314c0-56.229-45.583-101.811-101.811-101.811s-101.811 45.582-101.811 101.811c0 56.229 45.583 101.811 101.811 101.811s101.811-45.582 101.811-101.811zM404.639 318.212c0-56.229-45.582-101.811-101.811-101.811s-101.811 45.582-101.811 101.811c0 56.229 45.583 101.811 101.811 101.811s101.811-45.582 101.811-101.811z" />
<glyph unicode="&#xe616;" d="M264.534 315.276v-297.6l211.2 94.933v304zM440.534 403.101v30.933l-176-105.6v-9.959zM245.333 315.276v-297.6l-211.2 94.933v304zM69.334 403.093v30.933l176-105.6v-9.95z" />
<glyph unicode="&#xe617;" d="M0.64 147.262c0 0 66.78-101.183 202.654-98.868 87.594 2.599 211.903 41.339 245.149 169.118 0 0 35.703-6.070 60.997 21.682-34.547-4.77-57.529 6.071-57.529 6.071s45.243 1.302 55.216 28.042c-26.739-11.565-59.841-1.734-59.841-1.734s-15.612 95.689-110.724 99.158c0 0 50.832 10.359 42.882 22.067-6.359 8.528-41.724-7.324-41.724-7.324s19.707 8.673 19.273 17.924c-19.947-2.311-38.257-17.056-38.257-17.056s5.587 8.962 5.683 12.719c-47.506-26.404-79.787-124.743-79.787-124.743s-12.046 13.346-32.090 27.801c-48.374 28.522-137.607 62.25-137.607 62.25s-5.975-36.812 41.628-63.793c-19.465-1.542-29.294-4.048-29.294-4.048s0-39.123 56.758-51.844c-26.306-0.963-34.98-14.069-34.98-14.069s14.841-34.884 61.48-31.994c-37.968-19.657-13.298-46.446 17.731-43.555-99.832-89.426-187.619-7.806-187.619-7.806z" />
<glyph unicode="&#xe618;" d="M223.22 411.516c16.066 15.298 38.918 20.465 60.475 21.109 22.799 0.205 45.589 0.081 68.388 0.072 0.090-24.051 0.098-48.111-0.009-72.161-14.734 0.026-29.478-0.036-44.212 0.026-9.343 0.582-18.937-6.5-20.635-15.762-0.224-16.093-0.081-32.195-0.072-48.289 21.61-0.089 43.22 0.027 64.829-0.054-1.582-23.281-4.47-46.456-7.858-69.541-19.088-0.179-38.187 0.018-57.274-0.099-0.17-68.665 0.089-137.33-0.134-205.995-28.352-0.116-56.721 0.054-85.072-0.080-0.537 68.674 0.044 137.383-0.295 206.066-13.832 0.144-27.672-0.099-41.503 0.116 0.053 23.085 0.018 46.169 0.026 69.246 13.822 0.169 27.654-0.036 41.477 0.098 0.42 22.442-0.421 44.91 0.438 67.333 1.386 17.758 8.154 35.649 21.431 47.915z" />
<glyph unicode="&#xe619;" d="M242.1 207.143l-18.2 13.7-0.1 0.1c-5.8 4.6-10 8.3-10 14.7 0 7 5 11.8 10.9 17.4l0.5 0.4c20 15.2 44.7 34.3 44.7 74.6 0 26.9-11.9 44.7-23.3 57.7h13l60.4 33h-133.5c-25.3 0-62.7-3.2-94.6-28.6l-0.1-0.3c-21.8-18-34.8-44.5-34.8-70.6 0-21.2 8.7-42.2 23.9-57.4 21.4-21.6 48.3-26.1 67.1-26.1 1.5 0 3 0 4.5 0.1-0.8-3-1.2-6.3-1.2-10.3 0-10.9 3.6-19.3 8.1-26.2-24-1.9-58.1-6.5-84.9-22.3-39.4-22.7-42.5-56-42.5-65.6 0-38.2 35.7-76.8 115.5-76.8 91.6 0 139.5 49.8 139.5 99 0 37.1-22.8 55.6-44.9 73.5zM116.7 342.843c0 13.4 3 23.5 9.3 30.9 6.5 7.9 18.2 13.1 29 13.1 19.9 0 32.9-15 40.4-27.6 9.2-15.5 14.9-36.1 14.9-53.6 0-4.9 0-20-10.2-29.8-7-6.7-18.7-11.4-28.6-11.4-20.5 0-33.5 14.7-40.7 27-10.4 17.8-14.1 38.2-14.1 51.4zM237.8 114.743c0-27.4-25.2-44.5-65.8-44.5-48.1 0-80.3 20.6-80.3 51.3 0 26.1 21.5 36.8 37.8 42.5 18.9 6.1 44.3 7.3 50.1 7.3 3.9 0 6.1 0 8.7-0.2 36.6-25.2 49.5-36.1 49.5-56.4zM402 340.743v78h-34v-78h-80v-34h80v-81h34v81h78v34z" />
<glyph unicode="&#xe61a;" d="M0 395.703v-332.8h512v332.8h-512zM256 201.040l-218.844 179.303h437.678l-218.834-179.303zM188.702 235.001l-173.343-142.029v284.058l173.343-142.029zM201.631 224.413l54.369-44.544 54.375 44.549 178.375-146.156h-465.495l178.375 146.15zM323.298 235.001l173.342 142.029v-284.058l-173.342 142.029z" />
<glyph unicode="&#xe61b;" d="M470.446 283.273c5.673-14.203 0-31.247-11.361-42.603l-65.341-62.5c-2.846-2.852-2.846-5.693-2.846-11.366l14.208-90.9c2.841-11.361 0-22.723-8.519-31.257-8.525-8.489-19.881-14.183-31.252-14.183-5.678 0-14.192 2.852-19.876 5.688l-79.539 42.594c-2.852 2.852-8.53 2.852-11.362 0l-79.544-42.594c-17.040-8.535-36.921-5.688-48.281 8.489-8.53 8.54-11.356 19.901-8.53 31.257l14.208 90.901c0 2.852 0 8.514-2.846 11.366l-65.321 62.505c-11.371 11.356-14.203 25.57-11.371 42.603 5.678 14.203 17.055 25.564 31.248 28.411l90.9 14.192c2.852 0 8.53 2.846 8.53 5.678l39.772 82.391c5.678 14.192 19.881 22.718 36.921 22.718 14.203 0 28.401-8.525 36.925-22.718l39.772-82.391c2.837-2.832 5.678-5.678 8.525-5.678l90.89-14.192c17.050-2.846 28.406-14.208 34.094-28.411z" />
<glyph unicode="&#xe61c;" d="M256.24 178.224l-65.152 53.488-141.792-167.408h414.016l-141.808 169.072-65.264-55.152zM478.816 383.696h-445.040l222.528-187.168 222.512 187.168zM331.28 241.808l148.656-177.344v303.232l-148.656-125.888zM32.064 367.696v-303.232l148.656 177.344-148.656 125.888z" />
<glyph unicode="&#xe61d;" d="M192 124.373l-88.96 88.96-30.186-30.187 119.146-119.147 256 256-30.187 30.187z" />
<glyph unicode="&#xe61e;" d="M446.085 413.94c0-18.73-15.184-33.915-33.915-33.915s-33.915 15.184-33.915 33.915c0 18.731 15.184 33.915 33.915 33.915s33.915-15.184 33.915-33.915zM372.075 51.198c0-10.496 8.525-19.015 19.015-19.015 10.512 0 19.021 8.519 19.021 19.015l0.021 159.508h8.464l-0.057-159.509c0-10.496 8.514-19.015 19.015-19.015 10.496 0 19.005 8.519 19.005 19.015l0.082 275h8.351v-101.346c0-20.377 26.588-20.377 26.537 0v103.506c0 22.523-13.23 44.595-39.582 44.595l-76.017 0.031c-24.013 0-39.060-19.579-39.060-44.007v-104.125c0-20.24 26.747-20.24 26.747 0v101.34h8.51l-0.051-274.995zM287.365 413.94c0-18.73-15.184-33.915-33.915-33.915s-33.915 15.184-33.915 33.915c0 18.731 15.184 33.915 33.915 33.915s33.915-15.184 33.915-33.915zM213.356 51.198c0-10.496 8.525-19.015 19.016-19.015 10.512 0 19.021 8.519 19.021 19.015l0.020 159.508h8.463l-0.057-159.509c0-10.496 8.514-19.015 19.015-19.015 10.496 0 19.005 8.519 19.005 19.015l0.082 275h8.351v-101.346c0-20.377 26.588-20.377 26.537 0v103.506c0 22.523-13.23 44.595-39.582 44.595l-76.017 0.031c-24.013 0-39.060-19.579-39.060-44.007v-104.125c0-20.24 26.742-20.24 26.742 0v101.34h8.51l-0.046-274.995zM128.645 413.94c0-18.73-15.184-33.915-33.915-33.915s-33.915 15.184-33.915 33.915c0 18.731 15.184 33.915 33.915 33.915s33.915-15.184 33.915-33.915zM54.636 51.198c0-10.496 8.525-19.015 19.011-19.015 10.516 0 19.021 8.519 19.021 19.015l0.016 159.508h8.469l-0.051-159.509c0-10.496 8.514-19.015 19.010-19.015s19.006 8.519 19.006 19.015l0.082 275h8.34v-101.346c0-20.377 26.594-20.377 26.537 0v103.506c0 22.523-13.23 44.595-39.588 44.595l-76.016 0.031c-24.013 0-39.056-19.579-39.056-44.007v-104.125c0-20.24 26.742-20.24 26.742 0v101.34h8.514l-0.036-274.995z" />
<glyph unicode="&#xe61f;" d="M639.484 226.408c0 0-104.986-181.201-260.784-181.201s-260.748 181.201-260.748 181.201 104.957 181.87 260.748 181.87 260.784-181.87 260.784-181.87zM506.411 226.408c0 70.207-57.505 127.697-127.712 127.697-70.199 0-127.704-57.483-127.704-127.697s57.505-127.719 127.704-127.719c70.207 0 127.712 57.505 127.712 127.719zM378.699 283.898c-31.411 0-56.836-26.741-56.836-57.49 0-31.426 25.425-56.843 56.836-56.843 30.772 0 57.505 25.41 57.505 56.843 0.007 30.75-26.733 57.49-57.505 57.49z" horiz-adv-x="736" />
<glyph unicode="&#xe620;" d="M547.764 57.361h-18.515v24.382h-257.175v-24.382h-18.478c-9.863 0-17.876-10.041-17.876-22.328-0.099-12.44 8.012-22.365 17.876-22.303h294.168c9.894-0.147 18.072 9.863 17.956 22.229 0.013 12.36-8.056 22.402-17.956 22.402zM352.617 142.356c8.788-8.775 21.399-10.11 28.471-3.081l89.577 89.786c7.108 6.961 5.707 19.733-3.044 28.44-8.738 8.708-21.553 10.147-28.465 3.081l-89.7-89.834c-7.035-6.991-5.589-19.727 3.161-28.391zM177.006 317.924c8.775-8.818 21.486-10.11 28.434-3.038l89.656 89.761c7.047 6.979 5.712 19.788-3.044 28.465-8.732 8.689-21.534 10.11-28.465 3.007l-89.693-89.755c-7.004-7.072-5.602-19.727 3.112-28.44zM307.887 391.869l-90.456-90.628 41.489-41.378-200.712-200.657c-3.96-4.096-6.413-9.642-6.413-15.773 0-2.779 0.559-5.423 1.476-7.884 2.306-6.254 7.225-11.167 13.479-13.467 2.454-0.898 5.085-1.464 7.853-1.464 5.885 0 11.216 2.312 15.269 5.971l200.909 201.351 0.283-0.080 44.853-45.044 90.358 90.603-118.385 118.447z" horiz-adv-x="615" />
<glyph unicode="&#xe621;" d="M142.185 450.197c-6.421-0.721-6.25-5.651-6.014-14.817 0.24-9.134-1.543-17.36-9.267-21.889-1.469-0.753-2.927-1.507-4.353-2.334-0.091-0.038-0.139-0.032-0.23-0.080-7.996-4.166-15.918-1.288-23.54 3.83-7.612 5.112-11.704 7.906-15.742 2.853-4.006-5.005-1.282-1.608-7.788-9.716-0.064-0.085-0.102-0.133-0.177-0.229-6.511-8.13-3.782-4.738-7.777-9.727-4.044-5.053-0.416-8.434 6.234-14.743 6.581-6.233 11.094-13.269 8.957-21.841-0.529-1.581-0.988-3.194-1.421-4.813-0.037-0.133-0.112-0.171-0.16-0.32-2.703-8.594-10.362-12.152-19.347-13.925-9.006-1.768-13.856-2.676-13.145-9.113 0.705-6.367 0.219-2.041 1.373-12.377 0.011-0.107 0.016-0.165 0.038-0.299 1.148-10.336 0.663-6.009 1.367-12.365 0.716-6.437 5.662-6.25 14.828-6.020 9.108 0.245 17.317-1.543 21.863-9.246 0.743-1.464 1.517-2.949 2.345-4.364 0.037-0.112 0.016-0.16 0.080-0.262 4.145-7.969 1.26-15.917-3.83-23.508-5.106-7.633-7.889-11.709-2.874-15.757 5.037-3.995 1.629-1.282 9.727-7.793 0.064-0.037 0.091-0.075 0.15-0.118 0.026-0.016 0.048-0.037 0.070-0.070 8.124-6.484 4.733-3.75 9.754-7.756 5.047-4.033 8.439-0.433 14.737 6.223 6.239 6.618 13.322 11.148 21.927 8.936 1.538-0.497 3.103-0.951 4.679-1.362 0.16-0.064 0.214-0.149 0.379-0.203 8.568-2.692 12.147-10.352 13.904-19.337 1.8-8.995 2.708-13.845 9.134-13.156 6.373 0.732 2.041 0.235 12.381 1.362 0.075 0 0.101 0.010 0.177 0.022 0.037 0 0.064 0 0.112 0.010 10.341 1.164 5.999 0.705 12.376 1.405 6.421 0.721 6.276 5.662 6.009 14.817-0.256 9.166 1.549 17.413 9.332 21.927 1.442 0.737 2.857 1.469 4.246 2.275 0.101 0.048 0.166 0.026 0.278 0.091 7.996 4.15 15.928 1.26 23.529-3.84 7.627-5.096 11.703-7.884 15.747-2.857 3.995 5.021 1.282 1.613 7.788 9.732 0.059 0.059 0.070 0.091 0.128 0.139 0.022 0.038 0.022 0.059 0.059 0.080 6.49 8.13 3.76 4.744 7.783 9.743 4.012 5.037 0.411 8.418-6.233 14.737-6.634 6.265-11.185 13.354-8.931 21.996 0.486 1.512 0.929 3.039 1.335 4.577 0.070 0.166 0.155 0.219 0.208 0.422 2.708 8.568 10.357 12.136 19.336 13.904 8.995 1.789 13.866 2.697 13.161 9.118-0.716 6.378-0.24 2.051-1.362 12.393-0.016 0.070-0.005 0.107-0.016 0.182 0 0.042-0.010 0.069-0.022 0.112-1.154 10.352-0.689 6.004-1.405 12.387-0.705 6.421-5.646 6.255-14.817 6.004s-17.413 1.555-21.922 9.343c-0.006 0.005-0.006 0.005-0.006 0.010-0.753 1.426-1.464 2.837-2.26 4.214-0.042 0.107-0.032 0.176-0.101 0.294-4.139 7.991-1.276 15.918 3.846 23.535 5.085 7.617 7.895 11.698 2.852 15.752-5.016 4.001-1.619 1.277-9.721 7.777-0.091 0.064-0.112 0.101-0.197 0.149 0 0.022-0.016 0.010-0.032 0.032-8.114 6.501-4.732 3.771-9.749 7.772-5.042 4.038-8.413 0.428-14.743-6.223-6.25-6.634-13.333-11.159-21.959-8.915-1.528 0.481-3.077 0.93-4.615 1.335-0.171 0.064-0.214 0.15-0.39 0.198-8.595 2.714-12.162 10.357-13.925 19.358-1.768 9-2.692 13.845-9.113 13.145-6.436-0.716-1.896-0.214-12.66-1.41-10.341-1.175-6.009-0.705-12.387-1.405zM212.079 338.671c2.724-24.544-14.972-46.647-39.506-49.371-24.544-2.73-46.658 14.967-49.382 39.5-2.719 24.565 14.967 46.663 39.506 49.382 24.555 2.735 46.648-14.951 49.382-39.511zM293.313 283.862c-7.179-2.74-5.502-8.381-2.51-18.834 3.024-10.426 3.418-20.415-4.113-27.92-1.474-1.314-2.916-2.612-4.31-3.98-0.101-0.091-0.149-0.091-0.251-0.16-7.959-7.173-17.921-6.218-28.198-2.633-10.267 3.611-15.811 5.603-18.935-1.405-3.13-6.96-1.031-2.233-6.047-13.503-0.059-0.112-0.096-0.187-0.149-0.331-5.053-11.255-2.954-6.543-6.042-13.476-3.136-7.014 2.030-9.829 11.565-15.095 9.449-5.214 16.719-11.944 16.804-22.45-0.128-1.966-0.181-3.964-0.187-5.945-0.016-0.16-0.096-0.229-0.096-0.396-0.54-10.699-8.268-17.072-18.087-21.793-9.807-4.716-15.149-7.238-12.398-14.396 2.708-7.104 0.86-2.276 5.278-13.829 0.026-0.123 0.059-0.203 0.112-0.32 4.386-11.565 2.553-6.719 5.262-13.808 2.74-7.2 8.392-5.529 18.85-2.516 10.411 3.007 20.367 3.402 27.894-4.087 1.298-1.479 2.596-2.949 4.001-4.337 0.091-0.107 0.080-0.182 0.176-0.283 7.131-7.932 6.202-17.926 2.601-28.161-3.606-10.293-5.582-15.822 1.394-18.973 6.976-3.087 2.254-0.978 13.519-6.052 0.080-0.038 0.123-0.064 0.203-0.112 0.038-0.005 0.064-0.016 0.112-0.032 11.255-5.048 6.543-2.916 13.503-6.046 7.002-3.109 9.796 2.046 15.074 11.58 5.208 9.46 11.991 16.777 22.552 16.81 1.913-0.123 3.851-0.192 5.764-0.176 0.214-0.026 0.283-0.123 0.507-0.123 10.651-0.555 17.050-8.284 21.762-18.087 4.722-9.796 7.233-15.127 14.401-12.409 7.11 2.74 2.291 0.892 13.834 5.299 0.070 0.016 0.112 0.032 0.182 0.059 0.059 0.022 0.091 0.026 0.134 0.059 11.533 4.401 6.709 2.58 13.829 5.272 7.158 2.729 5.507 8.375 2.484 18.845-3.029 10.448-3.43 20.469 4.199 27.979 1.426 1.276 2.841 2.543 4.183 3.873 0.107 0.112 0.187 0.101 0.31 0.214 7.943 7.131 17.926 6.185 28.198 2.596 10.267-3.595 15.811-5.582 18.935 1.421 3.098 6.95 0.999 2.216 6.084 13.482 0.026 0.086 0.043 0.139 0.070 0.203 0.026 0.048 0.038 0.091 0.053 0.112 5.043 11.281 2.916 6.56 6.041 13.514 3.114 7.002-2.030 9.813-11.575 15.084-9.481 5.229-16.826 12.007-16.82 22.616 0.112 1.891 0.176 3.76 0.176 5.662 0.026 0.209 0.112 0.31 0.123 0.529 0.561 10.683 8.29 17.045 18.103 21.756 9.781 4.743 15.111 7.248 12.403 14.416-2.729 7.104-0.892 2.276-5.277 13.84-0.026 0.070-0.048 0.112-0.080 0.192-0.010 0.043-0.032 0.086-0.059 0.112-4.418 11.548-2.575 6.693-5.272 13.84-2.74 7.147-8.375 5.491-18.856 2.478-10.448-3.039-20.495-3.413-27.957 4.193-0.016 0.006-0.038 0.006-0.038 0.006-1.266 1.426-2.526 2.831-3.856 4.172-0.101 0.107-0.101 0.197-0.192 0.315-7.163 7.927-6.207 17.916-2.606 28.187 3.595 10.277 5.56 15.8-1.41 18.947-6.96 3.12-2.254 1.004-13.503 6.063-0.101 0.026-0.166 0.064-0.278 0.107 0 0.027-0.016 0.016-0.032 0.016-11.286 5.075-6.575 2.922-13.524 6.046-7.008 3.136-9.813-2.035-15.079-11.559-5.202-9.454-11.997-16.788-22.6-16.788-1.88 0.112-3.793 0.166-5.716 0.166-0.203 0.026-0.267 0.112-0.47 0.118-10.704 0.555-17.082 8.269-21.798 18.087-4.716 9.823-7.233 15.111-14.396 12.403-7.195-2.756-2.115-0.817-14.144-5.401-11.511-4.391-6.688-2.559-13.808-5.25zM406.927 176.487c10.459-27.408-3.296-58.094-30.697-68.553-27.397-10.442-58.094 3.301-68.537 30.687-10.469 27.418 3.279 58.115 30.676 68.563 27.407 10.454 58.105-3.279 68.558-30.697z" horiz-adv-x="528" />
<glyph unicode="&#xe622;" d="M472.279 395.974h-83.743v51.272h-265.058v-51.282h-83.758c-7.772 0.005-14.059-6.293-14.059-14.054v-12.949c0-57.534 42.599-105.283 97.92-113.372 2.243-60.432 51.558-108.79 112.338-109.522v-6.687c0-62.771-50.821-113.674-113.552-113.822v-17.51h267.269v17.51c-62.736 0.149-113.562 51.062-113.562 113.822v6.687c60.8 0.732 110.116 49.091 112.338 109.522 55.332 8.089 97.92 55.834 97.92 113.372v12.949c0.005 7.762-6.267 14.064-14.055 14.064zM123.479 284.128c-39.347 7.783-69.181 42.27-69.689 83.728h69.689v-83.728zM308.808 232.605l-52.803 35.19-52.808-35.19 17.152 61.092-49.792 39.363 63.411 2.576 22.042 59.515 22.041-59.515 63.411-2.576-49.797-39.363 17.142-61.092zM388.536 284.128v83.728h69.683c-0.502-41.452-30.341-75.945-69.683-83.728z" />
</font>
</defs>
</svg>
